<svg width="1024" height="1024" viewBox="0 0 1024 1024" fill="none" xmlns="http://www.w3.org/2000/svg">
<path fill-rule="evenodd" clip-rule="evenodd" d="M464.565 1.37498C429.552 4.23641 383.638 14.1789 346.432 26.9544C174.855 85.874 44.9818 233.107 9.75182 408.638C1.82268 448.144 -0.0989389 468.756 0.00385159 513.169C0.0780892 544.754 0.680556 556.575 3.13611 574.614C15.1198 662.645 45.0832 738.309 96.3699 810.05C146.006 879.482 218.575 940.196 294.372 975.707C347.016 1000.37 407.287 1017.11 459.484 1021.58C464.981 1022.05 472.529 1022.78 476.259 1023.21L483.041 1024V889.48V754.959L502.671 745.167C513.468 739.781 554.877 719.626 594.692 700.378C634.508 681.13 674.82 661.564 684.277 656.898L701.47 648.414V756.3V864.186L692.548 869.066C653.831 890.237 607.046 905.036 560.318 910.897L540.146 913.425V968.693V1023.96L549.783 1023.06C586.137 1019.67 607.733 1016.19 635.085 1009.33C775.801 974.054 896.086 878.909 966.194 747.422C1008.8 667.514 1029.77 566.175 1022.62 474.699C1010.75 322.689 938.332 191.764 815.065 99.463C741.563 44.4245 646.43 8.44751 555.287 1.21997C533.946 -0.471004 486.163 -0.389949 464.565 1.37498ZM562.989 115.536C668.179 129.916 764.969 185.916 828.085 268.912C852.091 300.479 873.894 339.412 886.31 372.885C896.597 400.619 905.03 435.889 908.627 466.237C910.879 485.22 910.879 536.351 908.627 555.834C900.379 627.242 872.225 696.16 826.915 755.86C821.485 763.015 816.093 769.654 814.934 770.613C813.078 772.147 812.827 744.554 812.827 538.566V304.776L782.489 292.155C765.804 285.213 740.752 274.874 726.818 269.179L701.485 258.824L701.121 392.68L700.757 526.537L585.831 582.392C522.622 613.111 448.901 648.948 422.009 662.027L373.112 685.806V786.659V887.512L369.186 886.6C367.027 886.099 355.459 880.904 343.48 875.055L321.698 864.42L322.065 758.495L322.43 652.57L372.398 628.306C399.88 614.96 473.58 579.275 536.173 549.005L649.982 493.969L649.671 365.484L649.361 236.998L637.94 232.353C631.658 229.799 600.673 217.082 569.083 204.093L511.649 180.476L491.277 188.851C480.073 193.459 453.56 204.359 432.359 213.074C411.159 221.789 373.255 237.464 348.128 247.906C268.286 281.089 216.885 302.244 213.572 303.287L210.36 304.3L210.339 538.508L210.317 772.717L205.388 767.029C197.153 757.527 178.221 730.858 169.547 716.541C95.9944 595.151 93.2777 441.078 162.523 318.33C185.999 276.715 219.99 235.734 255.719 205.966C319.511 152.819 395.225 121.373 478.044 113.629C496.736 111.881 544.02 112.942 562.989 115.536ZM522.81 302.699C527.803 305.051 533.773 308.315 536.08 309.95L540.273 312.926L539.854 366.536C539.477 414.525 539.174 420.541 536.963 423.899C535.297 426.43 526.235 431.785 509.124 440.352C475.131 457.367 324.032 530.235 322.74 530.235C322.178 530.235 321.717 496.325 321.717 454.879V379.525L329.926 375.408C346.905 366.89 401.718 343.259 445.518 325.572C470.474 315.494 495.068 305.31 500.172 302.939C505.276 300.57 510.416 298.583 511.593 298.526C512.771 298.469 517.819 300.346 522.81 302.699Z" fill="#0052D9"/>
</svg>
